<svg id="Layer_1" data-name="Layer 1" xmlns="http://www.w3.org/2000/svg" xmlns:xlink="http://www.w3.org/1999/xlink" viewBox="0 0 440.64 255.98"><defs><style>.cls-1{fill:url(#linear-gradient);}</style><linearGradient id="linear-gradient" x1="57.21" y1="469.04" x2="497.85" y2="469.04" gradientUnits="userSpaceOnUse"><stop offset="0" stop-color="#f6c25e"/><stop offset="1" stop-color="#ec6e50"/></linearGradient></defs><title>tcowlogo</title><path class="cls-1" d="M481.19,421.76a16.73,16.73,0,1,0-15.07-9.55l-43.71,36.37-56.2-32.46a17.36,17.36,0,0,0,.67-4.87A18,18,0,0,0,338,396.88L290,359.29a14,14,0,0,0,.37-3.32,14.95,14.95,0,0,0-29.89,0,14.78,14.78,0,0,0,4.24,10.43l-23.84,49.42a16.23,16.23,0,0,0-3-.26,20.47,20.47,0,0,0-12.82,4.5L159.4,388.37a9.12,9.12,0,0,0,.07-1.4,19.17,19.17,0,1,0-3,10.32l62.87,30.33a19.8,19.8,0,0,0-1.81,8.36,20.17,20.17,0,0,0,3.21,10.95l-37.51,36.52A30.38,30.38,0,0,0,140.64,496L89.93,471.54a16.78,16.78,0,0,0,.3-3.13,16.53,16.53,0,1,0-4.57,11.39l52.11,25.13a33.16,33.16,0,0,0-.34,4.68,30.14,30.14,0,0,0,9.18,21.71l-26.13,36.59a10.75,10.75,0,0,0-2.91-.37A12.41,12.41,0,1,0,130,579.93a12.14,12.14,0,0,0-2-6.67l26.09-36.56A30.4,30.4,0,0,0,190.24,530l28.49,21.34a20.63,20.63,0,0,0-1.22,7.11A21.51,21.51,0,0,0,260.37,561l66.26-20.49a26.18,26.18,0,0,0,23.3,14.27,25.78,25.78,0,0,0,14.37-4.32l30.14,27.61a14.74,14.74,0,1,0,14.12-10.51,14.53,14.53,0,0,0-8.7,2.88L371,544a25.64,25.64,0,0,0,5-15.41A26.1,26.1,0,0,0,354,502.76V428.54a18,18,0,0,0,7.48-4.43l57.38,33.17,49.89,69a9.58,9.58,0,1,0,8.66-5.49,11.07,11.07,0,0,0-1.14.07L428.9,455.29l43.45-36.11A16.21,16.21,0,0,0,481.19,421.76ZM273,370.72a13.75,13.75,0,0,0,2.44.22,14.84,14.84,0,0,0,9.73-3.61l47.06,36.85a17.45,17.45,0,0,0-1.48,7.07,18,18,0,0,0,14,17.58v74.11a26,26,0,0,0-9.84,4.24L258,439.33a20.65,20.65,0,0,0,.29-3.35,20.36,20.36,0,0,0-8.7-16.73ZM259.38,551.55A21.52,21.52,0,0,0,239,536.92a21.21,21.21,0,0,0-15.33,6.49L195.4,522.22a30.38,30.38,0,0,0-5-32.8l37-36a20.06,20.06,0,0,0,10.54,2.95,20.33,20.33,0,0,0,16.22-8.07l74.18,65.48a26,26,0,0,0-4.57,14.78,27.26,27.26,0,0,0,.18,3Z" transform="translate(-57.21 -341.05)"/></svg>